HIERARCHY
ROOT Hips
{
 OFFSET 0.000000 0.000000 0.000000
 CHANNELS 6 Xposition Yposition Zposition Yrotation Xrotation Zrotation
 JOINT Chest
 {
  OFFSET 0.000000 9.585900 0.002600
  CHANNELS 3 Yrotation Xrotation Zrotation
  JOINT Chest2
  {
   OFFSET 0.000000 9.601200 -0.005300
   CHANNELS 3 Yrotation Xrotation Zrotation
   JOINT Chest3
   {
    OFFSET 0.000000 9.561800 0.000000
    CHANNELS 3 Yrotation Xrotation Zrotation
    JOINT Chest4
    {
     OFFSET 0.000000 9.552100 0.000000
     CHANNELS 3 Yrotation Xrotation Zrotation
     JOINT Neck
     {
      OFFSET 0.000000 14.453000 0.000000
      CHANNELS 3 Yrotation Xrotation Zrotation
      JOINT Head
      {
       OFFSET 0.000000 8.936500 -0.011300
       CHANNELS 3 Yrotation Xrotation Zrotation
       End Site
       {
        OFFSET 0.000000 17.073600 -0.006000
       }
      }
     }
     JOINT RightCollar
     {
      OFFSET -2.921100 9.558500 0.000000
      CHANNELS 3 Yrotation Xrotation Zrotation
      JOINT RightShoulder
      {
       OFFSET -13.519700 0.000000 0.000000
       CHANNELS 3 Yrotation Xrotation Zrotation
       JOINT RightElbow
       {
        OFFSET 0.000000 -29.696600 0.000000
        CHANNELS 3 Yrotation Xrotation Zrotation
        JOINT RightWrist
        {
         OFFSET 0.000000 -24.004700 0.000000
         CHANNELS 3 Yrotation Xrotation Zrotation
         End Site
         {
          OFFSET 0.000000 -17.728500 0.000000
         }
        }
       }
      }
     }
     JOINT LeftCollar
     {
      OFFSET 2.921100 9.558500 0.000000
      CHANNELS 3 Yrotation Xrotation Zrotation
      JOINT LeftShoulder
      {
       OFFSET 13.519700 0.000000 0.000000
       CHANNELS 3 Yrotation Xrotation Zrotation
       JOINT LeftElbow
       {
        OFFSET 0.000000 -29.696600 0.000000
        CHANNELS 3 Yrotation Xrotation Zrotation
        JOINT LeftWrist
        {
         OFFSET 0.000000 -24.004700 0.000000
         CHANNELS 3 Yrotation Xrotation Zrotation
         End Site
         {
          OFFSET 0.000000 -17.728500 0.000000
         }
        }
       }
      }
     }
    }
   }
  }
 }
 JOINT RightHip
 {
  OFFSET -7.771700 -0.012900 -0.001300
  CHANNELS 3 Yrotation Xrotation Zrotation
  JOINT RightKnee
  {
   OFFSET 0.000000 -40.869800 0.001200
   CHANNELS 3 Yrotation Xrotation Zrotation
   JOINT RightAnkle
   {
    OFFSET 0.000000 -39.717900 0.002100
    CHANNELS 3 Yrotation Xrotation Zrotation
    JOINT RightToe
    {
     OFFSET 0.000000 -4.965400 11.033500
     CHANNELS 3 Yrotation Xrotation Zrotation
     End Site
     {
      OFFSET 0.000000 -1.423100 5.872300
     }
    }
   }
  }
 }
 JOINT LeftHip
 {
  OFFSET 7.771700 -0.012900 -0.001300
  CHANNELS 3 Yrotation Xrotation Zrotation
  JOINT LeftKnee
  {
   OFFSET 0.000000 -40.869800 0.001200
   CHANNELS 3 Yrotation Xrotation Zrotation
   JOINT LeftAnkle
   {
    OFFSET 0.000000 -39.717900 0.002100
    CHANNELS 3 Yrotation Xrotation Zrotation
    JOINT LeftToe
    {
     OFFSET 0.000000 -4.965400 11.033500
     CHANNELS 3 Yrotation Xrotation Zrotation
     End Site
     {
      OFFSET 0.000000 -1.423100 5.872300
     }
    }
   }
  }
 }
}
MOTION
Frames: 14
Frame Time: 0.008333
0.000000 85.388000 0.000000 0.000000 -5.767877 0.000000 0.000000 11.653817 0.000000 0.000000 -5.885947 0.000000 0.000000 -0.000000 0.000000 0.000000 -0.000000 0.000000 0.000000 12.528835 0.000000 0.000000 0.711642 0.000000 0.000000 -0.000000 0.000000 0.000000 0.000000 -90.000000 0.000000 -2.309062 0.000000 0.000000 2.309062 0.000000 0.000000 -0.000000 0.000000 0.000000 -0.000000 90.000000 0.000000 -2.309062 0.000000 0.000000 2.309062 0.000000 0.000000 8.520406 0.000000 0.000000 1.905762 0.000000 -0.000000 -4.658285 0.000000 0.000000 -0.000000 0.000000 0.000000 8.520406 0.000000 0.000000 1.905762 0.000000 -0.000000 -4.658285 0.000000 0.000000 -0.000000 0.000000
-29.711380 62.052508 12.142821 177.116248 -49.467703 -0.485875 3.755791 26.142753 1.539433 0.518205 4.328933 0.220908 0.833861 6.885731 0.370761 2.784485 21.362071 1.528471 6.235888 14.976787 1.695118 10.945268 -7.876467 0.886914 6.205478 4.481385 6.136545 1.199312 -8.620005 -17.425492 -93.952985 -54.726683 134.688360 5.822185 8.106640 -0.278800 -11.139810 1.598549 -1.607359 -5.317483 -7.063126 17.346090 120.966316 -69.981979 -148.221125 5.348179 7.965402 -20.247507 2.965099 -17.431126 -6.692598 -1.082866 61.651908 -4.823754 1.706630 -7.319626 10.774221 0.133715 -0.444155 0.068014 -3.722174 -14.689302 2.303101 23.450523 77.452635 23.393907 0.740396 -12.102750 -2.966092 0.271111 0.587978 0.124039
-29.714963 62.052130 12.144784 177.133311 -49.457162 -0.498959 3.771044 26.134285 1.555692 0.520926 4.326986 0.222476 0.838332 6.882807 0.373315 2.852448 21.346881 1.550960 6.190907 15.117154 1.807915 10.903682 -7.638685 1.091816 6.127978 4.495514 6.153436 1.185393 -8.672738 -17.429721 -94.103085 -54.756735 134.764707 5.845785 8.118695 -0.272683 -11.203337 1.607670 -1.611793 -5.389302 -7.147578 17.334865 120.914747 -70.003414 -148.126705 5.348674 7.956124 -20.238714 2.975261 -17.436543 -6.691340 -1.088675 61.648054 -4.825840 1.692408 -7.319133 10.778339 0.140610 -0.436879 0.071787 -3.734947 -14.701876 2.289150 23.481598 77.447314 23.440817 0.744412 -12.101894 -2.976066 0.273199 0.591289 0.121035
-29.719502 62.052191 12.147133 177.147979 -49.450255 -0.508836 3.782533 26.128713 1.568410 0.519157 4.325844 0.222053 0.846491 6.881981 0.377367 2.847362 21.344280 1.553702 6.200150 15.260329 1.905489 10.846678 -7.381502 1.287096 6.164056 4.503091 6.182305 1.131457 -8.736575 -17.451920 -94.262272 -54.787002 134.845775 5.871666 8.134043 -0.266282 -11.200727 1.615704 -1.622305 -5.446332 -7.232768 17.322547 120.874944 -70.016753 -148.046489 5.352126 7.949131 -20.232065 2.978730 -17.438869 -6.695327 -1.087458 61.642414 -4.823037 1.698126 -7.320968 10.773982 0.136022 -0.430323 0.079661 -3.745837 -14.712013 2.274195 23.506955 77.443322 23.474837 0.765547 -12.096090 -2.982762 0.270126 0.590457 0.118546
-29.721176 62.052739 12.150217 177.155155 -49.447485 -0.533684 3.803152 26.125928 1.602215 0.510224 4.324632 0.217903 0.861156 6.884194 0.384281 2.845579 21.340196 1.553584 6.195721 15.408317 1.999048 10.775954 -7.121443 1.470076 6.246322 4.545678 6.252017 1.044463 -8.840372 -17.509257 -94.430316 -54.822195 134.933197 5.894723 8.149602 -0.263729 -11.176916 1.649320 -1.634360 -5.515067 -7.327831 17.313615 120.808508 -70.049300 -147.958578 5.362052 7.912999 -20.221023 2.984220 -17.438513 -6.675459 -1.099522 61.637347 -4.830896 1.706885 -7.329644 10.784731 0.125100 -0.419058 0.073354 -3.756574 -14.717216 2.280197 23.553506 77.438890 23.526861 0.812460 -12.072769 -2.980532 0.239120 0.572215 0.104043
-29.727393 62.053077 12.154165 177.163696 -49.444662 -0.535071 3.805110 26.125683 1.605435 0.517268 4.323641 0.220919 0.858193 6.887976 0.384808 2.862258 21.337551 1.563228 6.162702 15.548253 2.080498 10.693246 -6.875705 1.639406 6.265843 4.575807 6.284440 1.004235 -8.903652 -17.540063 -94.645696 -54.854131 135.066319 5.914681 8.167293 -0.263059 -11.189656 1.676923 -1.642791 -5.548517 -7.405847 17.293718 120.777646 -70.072562 -147.916631 5.367327 7.911942 -20.215460 2.997464 -17.435119 -6.676197 -1.064015 61.629244 -4.806290 1.673846 -7.328788 10.798519 0.123290 -0.413565 0.075452 -3.759130 -14.723008 2.259892 23.583520 77.430261 23.571176 0.809869 -12.064277 -2.984433 0.248500 0.570651 0.100170
-29.737314 62.053173 12.159054 177.170853 -49.441696 -0.515039 3.791659 26.126003 1.580298 0.524657 4.325821 0.225776 0.854136 6.889080 0.382774 2.879962 21.339692 1.573500 6.121486 15.671631 2.153381 10.598150 -6.655559 1.795843 6.287278 4.609694 6.315921 0.971853 -8.972394 -17.572062 -94.861543 -54.880662 135.195379 5.938151 8.188487 -0.260554 -11.201104 1.711591 -1.648009 -5.567471 -7.478451 17.273553 120.833467 -70.023665 -147.923597 5.375025 7.933413 -20.231544 3.015842 -17.432771 -6.704634 -1.069477 61.621174 -4.808985 1.657344 -7.321141 10.788171 0.147033 -0.412392 0.093035 -3.754403 -14.729204 2.222097 23.572641 77.421998 23.573215 0.782064 -12.073011 -2.991176 0.265061 0.585763 0.108145
-29.743419 62.053431 12.164916 177.176866 -49.441728 -0.517917 3.789607 26.128174 1.580272 0.528068 4.329050 0.227571 0.850034 6.885598 0.381585 2.910345 21.356311 1.593093 6.061973 15.769614 2.213111 10.490195 -6.464413 1.939080 6.296792 4.639686 6.344172 0.943152 -9.068986 -17.597332 -95.031174 -54.913113 135.278971 5.963590 8.210011 -0.255201 -11.224437 1.743276 -1.652843 -5.574425 -7.544932 17.260333 120.840393 -69.990252 -147.898041 5.385928 7.924985 -20.240519 3.024973 -17.428364 -6.705737 -1.076043 61.611074 -4.813224 1.647943 -7.321525 10.781582 0.158754 -0.406259 0.099634 -3.754742 -14.730958 2.207422 23.629614 77.404662 23.642100 0.772201 -12.062909 -2.997390 0.252041 0.585640 0.108877
-29.745162 62.054483 12.171130 177.164045 -49.450074 -0.532656 3.818943 26.135375 1.614646 0.528631 4.330653 0.227705 0.852532 6.888847 0.383847 2.907915 21.359687 1.597199 6.013797 15.866218 2.272371 10.374733 -6.299803 2.067599 6.323296 4.686534 6.382814 0.901667 -9.168299 -17.620591 -95.187208 -54.945005 135.364379 5.987100 8.230184 -0.250229 -11.231450 1.761408 -1.654878 -5.576448 -7.576321 17.256920 120.817715 -69.956948 -147.844942 5.393076 7.920671 -20.240671 3.037625 -17.417735 -6.675939 -1.091543 61.599354 -4.831441 1.661457 -7.329217 10.789278 0.140875 -0.394224 0.098679 -3.749805 -14.723235 2.219159 23.684933 77.395943 23.704758 0.804359 -12.041670 -2.992143 0.218350 0.569294 0.094238
-29.750437 62.054905 12.178283 177.152599 -49.456231 -0.526901 3.827607 26.140839 1.618363 0.530006 4.339864 0.231534 0.855487 6.888439 0.384156 2.906751 21.371831 1.603168 5.960516 15.945786 2.320892 10.255772 -6.157459 2.181798 6.349546 4.730227 6.417626 0.846394 -9.302026 -17.620413 -95.276194 -54.995008 135.401743 5.959957 8.277803 -0.216196 -11.225331 1.817656 -1.659634 -5.576805 -7.649761 17.243365 120.788631 -69.936778 -147.799113 5.398240 7.918522 -20.233305 3.052976 -17.408513 -6.662166 -1.090620 61.583904 -4.849723 1.652265 -7.320102 10.810699 0.135658 -0.395103 0.090719 -3.742098 -14.717770 2.210867 23.724774 77.384359 23.752014 0.801722 -12.038934 -2.993459 0.210187 0.571930 0.091487
-29.754418 62.056316 12.185205 177.148594 -49.472336 -0.532838 3.834787 26.156011 1.629205 0.527348 4.347859 0.233158 0.858191 6.891952 0.385266 2.908845 21.393984 1.611411 5.903756 16.010384 2.360779 10.135427 -6.033705 2.285150 6.372290 4.767461 6.447877 0.810773 -9.399604 -17.637865 -95.418275 -55.021025 135.481029 6.010971 8.281170 -0.219413 -11.220700 1.870561 -1.663153 -5.548698 -7.698968 17.210740 120.854743 -69.921791 -147.881215 5.388293 7.918898 -20.235231 3.062316 -17.389278 -6.645794 -1.104653 61.570161 -4.869832 1.649773 -7.311419 10.817174 0.142294 -0.401767 0.085634 -3.740866 -14.703179 2.206948 23.764885 77.375052 23.800515 0.813269 -12.032095 -3.001800 0.228962 0.568354 0.091230
-29.757327 62.057376 12.192847 177.145107 -49.488351 -0.543188 3.838815 26.173087 1.643760 0.527950 4.356394 0.232127 0.860285 6.898752 0.389525 2.909324 21.393213 1.608823 5.849025 16.091039 2.403674 10.018988 -5.923760 2.380411 6.393178 4.824800 6.484222 0.773118 -9.493400 -17.652643 -95.545518 -55.044058 135.556113 6.051750 8.279055 -0.209824 -11.224377 1.934240 -1.661359 -5.541503 -7.772073 17.210444 120.850767 -69.915231 -147.878363 5.403462 7.917482 -20.221672 3.071155 -17.370393 -6.625834 -1.124373 61.556564 -4.890397 1.646914 -7.306137 10.818426 0.149688 -0.404390 0.086403 -3.741364 -14.690031 2.203149 23.801780 77.364696 23.839590 0.882717 -12.018008 -3.023605 0.201747 0.565651 0.099651
-29.766611 62.059300 12.199573 177.153654 -49.513829 -0.520744 3.815304 26.204090 1.611027 0.530201 4.358524 0.232001 0.859942 6.915339 0.390652 2.910856 21.389271 1.607861 5.795433 16.171628 2.443802 9.911007 -5.822397 2.466973 6.413083 4.881332 6.519938 0.728629 -9.581208 -17.665113 -95.653386 -55.063106 135.621397 6.065744 8.283872 -0.182555 -11.225203 2.000621 -1.659284 -5.489565 -7.767457 17.185091 120.820467 -69.861378 -147.865103 5.362815 7.905473 -20.212615 3.077992 -17.338815 -6.652835 -1.124798 61.543717 -4.894641 1.624917 -7.295415 10.811207 0.170833 -0.406633 0.099646 -3.739830 -14.667050 2.160098 23.755588 77.350672 23.804469 0.865393 -12.011498 -3.035480 0.225616 0.572019 0.110106
-29.767259 62.059185 12.208610 177.139782 -49.525463 -0.529021 3.828025 26.217139 1.627993 0.533259 4.361543 0.233332 0.858209 6.934264 0.390862 2.904253 21.444314 1.610106 5.750954 16.194656 2.468742 9.811439 -5.725510 2.546165 6.443339 4.877479 6.543098 0.677526 -9.659859 -17.677636 -95.743290 -55.075318 135.677065 6.071331 8.294203 -0.143984 -11.209405 2.007701 -1.655277 -5.457495 -7.768951 17.176765 120.800618 -69.826853 -147.857625 5.409439 7.926570 -20.160169 3.085153 -17.325406 -6.626556 -1.119263 61.528061 -4.900396 1.634584 -7.305839 10.828691 0.149203 -0.390804 0.088791 -3.736414 -14.655659 2.175996 23.724812 77.343699 23.779541 0.863176 -11.992576 -3.021476 0.205892 0.559623 0.093148
